# xmcd
#
# Track frame offsets:
#	150
#	12423
#	22473
#	34668
#	47519
#	59774
#	76419
#	89857
#	107545
#	120980
#	136046
#	155415
#	178974
#	194216
#	206578
#	225656
#	244378
#	257282
#	269194
#	283217
#	300092
#	316076
#
# Disc length: 4376 seconds
#
# Revision: 0
# Processed by: cddbd v1.5.2PL0 Copyright (c) Steve Scherf et al.
# Submitted via: EasyCDDAExtractor 10.0.3.1
#
DISCID=40111616
DTITLE=New Riders Of The Purple Sage - Cactus Juice [CD2]
DYEAR=1900
DGENRE=
TTITLE0=Old Man Noll
TTITLE1=Ashes Of Love
TTITLE2=You Angel You
TTITLE3=Instant Armadillo Blues
TTITLE4=Workingman's Woman
TTITLE5=On The Amazon
TTITLE6=Big Wheels
TTITLE7=Singing Cowboy
TTITLE8=Crooked Judge
TTITLE9=Parson Brown
TTITLE10=Neon Rose
TTITLE11=Mighty Time
TTITLE12=I Heard You Been Layin' My Old Lady
TTITLE13=Strangers On A Train
TTITLE14=Up Against The Wall Redneck
TTITLE15=Take A Letter Maria
TTITLE16=Little Old Lady
TTITLE17=On Top Of Old Smoky
TTITLE18=Over And Over
TTITLE19=La Bamba
TTITLE20=Goin' Round The Horn
TTITLE21=Farewell Angelina
EXTD=
EXTT0=
EXTT1=
EXTT2=
EXTT3=
EXTT4=
EXTT5=
EXTT6=
EXTT7=
EXTT8=
EXTT9=
EXTT10=
EXTT11=
EXTT12=
EXTT13=
EXTT14=
EXTT15=
EXTT16=
EXTT17=
EXTT18=
EXTT19=
EXTT20=
EXTT21=
PLAYORDER=
